<mxfile host="app.diagrams.net" modified="2024-05-06T06:15:42.713Z" agent="Mozilla/5.0 (Windows NT 10.0; Win64; x64) AppleWebKit/537.36 (KHTML, like Gecko) Chrome/124.0.0.0 Safari/537.36" etag="vNA7aXbUssl5B7sM5Lm9" version="24.3.1" type="github">
  <diagram id="prtHgNgQTEPvFCAcTncT" name="Page-1">
    <mxGraphModel dx="2501" dy="738" grid="1" gridSize="10" guides="1" tooltips="1" connect="1" arrows="1" fold="1" page="1" pageScale="1" pageWidth="827" pageHeight="1169" math="0" shadow="0">
      <root>
        <mxCell id="0" />
        <mxCell id="1" parent="0" />
        <mxCell id="N0XD-l2MzXy2-yZ4FKow-7" style="edgeStyle=orthogonalEdgeStyle;rounded=0;orthogonalLoop=1;jettySize=auto;html=1;entryX=0.5;entryY=0;entryDx=0;entryDy=0;" edge="1" parent="1" source="N0XD-l2MzXy2-yZ4FKow-3" target="N0XD-l2MzXy2-yZ4FKow-4">
          <mxGeometry relative="1" as="geometry" />
        </mxCell>
        <mxCell id="N0XD-l2MzXy2-yZ4FKow-3" value="Global Scope" style="rounded=1;whiteSpace=wrap;html=1;" vertex="1" parent="1">
          <mxGeometry x="180" y="90" width="160" height="60" as="geometry" />
        </mxCell>
        <mxCell id="N0XD-l2MzXy2-yZ4FKow-9" style="edgeStyle=orthogonalEdgeStyle;rounded=0;orthogonalLoop=1;jettySize=auto;html=1;" edge="1" parent="1" source="N0XD-l2MzXy2-yZ4FKow-4" target="N0XD-l2MzXy2-yZ4FKow-8">
          <mxGeometry relative="1" as="geometry" />
        </mxCell>
        <mxCell id="N0XD-l2MzXy2-yZ4FKow-15" style="edgeStyle=orthogonalEdgeStyle;rounded=0;orthogonalLoop=1;jettySize=auto;html=1;" edge="1" parent="1" source="N0XD-l2MzXy2-yZ4FKow-4" target="N0XD-l2MzXy2-yZ4FKow-11">
          <mxGeometry relative="1" as="geometry">
            <Array as="points">
              <mxPoint x="260" y="320" />
              <mxPoint x="520" y="320" />
            </Array>
          </mxGeometry>
        </mxCell>
        <mxCell id="N0XD-l2MzXy2-yZ4FKow-16" style="edgeStyle=orthogonalEdgeStyle;rounded=0;orthogonalLoop=1;jettySize=auto;html=1;entryX=0.5;entryY=0;entryDx=0;entryDy=0;" edge="1" parent="1" source="N0XD-l2MzXy2-yZ4FKow-4" target="N0XD-l2MzXy2-yZ4FKow-10">
          <mxGeometry relative="1" as="geometry">
            <Array as="points">
              <mxPoint x="260" y="320" />
              <mxPoint y="320" />
            </Array>
          </mxGeometry>
        </mxCell>
        <mxCell id="N0XD-l2MzXy2-yZ4FKow-17" style="edgeStyle=orthogonalEdgeStyle;rounded=0;orthogonalLoop=1;jettySize=auto;html=1;" edge="1" parent="1" source="N0XD-l2MzXy2-yZ4FKow-4" target="N0XD-l2MzXy2-yZ4FKow-12">
          <mxGeometry relative="1" as="geometry">
            <Array as="points">
              <mxPoint x="260" y="320" />
              <mxPoint x="-210" y="320" />
            </Array>
          </mxGeometry>
        </mxCell>
        <mxCell id="N0XD-l2MzXy2-yZ4FKow-4" value="Window" style="rounded=1;whiteSpace=wrap;html=1;fillColor=#E6E6E6;" vertex="1" parent="1">
          <mxGeometry x="180" y="230" width="160" height="60" as="geometry" />
        </mxCell>
        <mxCell id="N0XD-l2MzXy2-yZ4FKow-6" style="edgeStyle=orthogonalEdgeStyle;rounded=0;orthogonalLoop=1;jettySize=auto;html=1;entryX=1;entryY=0.5;entryDx=0;entryDy=0;shape=flexArrow;" edge="1" parent="1" source="N0XD-l2MzXy2-yZ4FKow-5" target="N0XD-l2MzXy2-yZ4FKow-4">
          <mxGeometry relative="1" as="geometry" />
        </mxCell>
        <mxCell id="N0XD-l2MzXy2-yZ4FKow-5" value="&lt;div&gt;BOM(Browser Object Model)&lt;/div&gt;" style="rounded=0;whiteSpace=wrap;html=1;fillColor=#D5E8D4;" vertex="1" parent="1">
          <mxGeometry x="470" y="230" width="230" height="60" as="geometry" />
        </mxCell>
        <mxCell id="N0XD-l2MzXy2-yZ4FKow-8" value="&lt;pre style=&quot;box-sizing: border-box; --un-rotate: 0; --un-rotate-x: 0; --un-rotate-y: 0; --un-rotate-z: 0; --un-scale-x: 1; --un-scale-y: 1; --un-scale-z: 1; --un-skew-x: 0; --un-skew-y: 0; --un-translate-x: 0; --un-translate-y: 0; --un-translate-z: 0; --un-pan-x: ; --un-pan-y: ; --un-pinch-zoom: ; --un-scroll-snap-strictness: proximity; --un-ordinal: ; --un-slashed-zero: ; --un-numeric-figure: ; --un-numeric-spacing: ; --un-numeric-fraction: ; --un-border-spacing-x: 0; --un-border-spacing-y: 0; --un-ring-offset-shadow: 0 0 transparent; --un-ring-shadow: 0 0 transparent; --un-shadow-inset: ; --un-shadow: 0 0 transparent; --un-ring-inset: ; --un-ring-offset-width: 0px; --un-ring-offset-color: #fff; --un-ring-width: 0px; --un-ring-color: rgba(147,197,253,.5); --un-blur: ; --un-brightness: ; --un-contrast: ; --un-drop-shadow: ; --un-grayscale: ; --un-hue-rotate: ; --un-invert: ; --un-saturate: ; --un-sepia: ; --un-backdrop-blur: ; --un-backdrop-brightness: ; --un-backdrop-contrast: ; --un-backdrop-grayscale: ; --un-backdrop-hue-rotate: ; --un-backdrop-invert: ; --un-backdrop-opacity: ; --un-backdrop-saturate: ; --un-backdrop-sepia: ; font-family: ui-monospace, SFMono-Regular, &amp;quot;SF Mono&amp;quot;, Menlo, Consolas, &amp;quot;Liberation Mono&amp;quot;, monospace; margin-top: 0px; margin-bottom: 0px; overflow: auto; overflow-wrap: normal; background-color: var(--TY-Fill-0); border-radius: 6px; line-height: 1.45; text-align: start; padding: 16px 8px; background-image: initial; background-position: initial; background-size: initial; background-repeat: initial; background-attachment: initial; background-origin: initial; background-clip: initial;&quot;&gt;&lt;code style=&quot;box-sizing: border-box; --un-rotate: 0; --un-rotate-x: 0; --un-rotate-y: 0; --un-rotate-z: 0; --un-scale-x: 1; --un-scale-y: 1; --un-scale-z: 1; --un-skew-x: 0; --un-skew-y: 0; --un-translate-x: 0; --un-translate-y: 0; --un-translate-z: 0; --un-pan-x: ; --un-pan-y: ; --un-pinch-zoom: ; --un-scroll-snap-strictness: proximity; --un-ordinal: ; --un-slashed-zero: ; --un-numeric-figure: ; --un-numeric-spacing: ; --un-numeric-fraction: ; --un-border-spacing-x: 0; --un-border-spacing-y: 0; --un-ring-offset-shadow: 0 0 transparent; --un-ring-shadow: 0 0 transparent; --un-shadow-inset: ; --un-shadow: 0 0 transparent; --un-ring-inset: ; --un-ring-offset-width: 0px; --un-ring-offset-color: #fff; --un-ring-width: 0px; --un-ring-color: rgba(147,197,253,.5); --un-blur: ; --un-brightness: ; --un-contrast: ; --un-drop-shadow: ; --un-grayscale: ; --un-hue-rotate: ; --un-invert: ; --un-saturate: ; --un-sepia: ; --un-backdrop-blur: ; --un-backdrop-brightness: ; --un-backdrop-contrast: ; --un-backdrop-grayscale: ; --un-backdrop-hue-rotate: ; --un-backdrop-invert: ; --un-backdrop-opacity: ; --un-backdrop-saturate: ; --un-backdrop-sepia: ; font-family: ui-monospace, SFMono-Regular, &amp;quot;SF Mono&amp;quot;, Menlo, Consolas, &amp;quot;Liberation Mono&amp;quot;, monospace; background-color: var(--TY-Fill-0); border-radius: 6px; margin: 0px; padding: 0px; background-image: initial; background-position: initial; background-size: initial; background-repeat: initial; background-attachment: initial; background-origin: initial; background-clip: initial; border: 0px; word-break: normal; overflow-wrap: normal; display: inline; line-height: inherit;&quot; data-spm-anchor-id=&quot;5176.28103460.0.i5.297c3da2JY9OAc&quot;&gt;other BOM properties/methods&lt;/code&gt;&lt;/pre&gt;" style="rounded=1;whiteSpace=wrap;html=1;" vertex="1" parent="1">
          <mxGeometry x="130" y="370" width="260" height="60" as="geometry" />
        </mxCell>
        <mxCell id="N0XD-l2MzXy2-yZ4FKow-10" value="Location" style="rounded=1;whiteSpace=wrap;html=1;" vertex="1" parent="1">
          <mxGeometry x="-80" y="370" width="160" height="60" as="geometry" />
        </mxCell>
        <mxCell id="N0XD-l2MzXy2-yZ4FKow-21" style="edgeStyle=orthogonalEdgeStyle;rounded=0;orthogonalLoop=1;jettySize=auto;html=1;entryX=0.5;entryY=0;entryDx=0;entryDy=0;" edge="1" parent="1" source="N0XD-l2MzXy2-yZ4FKow-11" target="N0XD-l2MzXy2-yZ4FKow-19">
          <mxGeometry relative="1" as="geometry">
            <Array as="points">
              <mxPoint x="520" y="460" />
              <mxPoint x="330" y="460" />
            </Array>
          </mxGeometry>
        </mxCell>
        <mxCell id="N0XD-l2MzXy2-yZ4FKow-23" style="edgeStyle=orthogonalEdgeStyle;rounded=0;orthogonalLoop=1;jettySize=auto;html=1;" edge="1" parent="1" source="N0XD-l2MzXy2-yZ4FKow-11" target="N0XD-l2MzXy2-yZ4FKow-22">
          <mxGeometry relative="1" as="geometry">
            <Array as="points">
              <mxPoint x="520" y="460" />
              <mxPoint x="710" y="460" />
            </Array>
          </mxGeometry>
        </mxCell>
        <mxCell id="N0XD-l2MzXy2-yZ4FKow-11" value="Document" style="rounded=1;whiteSpace=wrap;html=1;fillColor=#33FF99;" vertex="1" parent="1">
          <mxGeometry x="440" y="370" width="160" height="60" as="geometry" />
        </mxCell>
        <mxCell id="N0XD-l2MzXy2-yZ4FKow-12" value="&lt;pre style=&quot;box-sizing: border-box; --un-rotate: 0; --un-rotate-x: 0; --un-rotate-y: 0; --un-rotate-z: 0; --un-scale-x: 1; --un-scale-y: 1; --un-scale-z: 1; --un-skew-x: 0; --un-skew-y: 0; --un-translate-x: 0; --un-translate-y: 0; --un-translate-z: 0; --un-pan-x: ; --un-pan-y: ; --un-pinch-zoom: ; --un-scroll-snap-strictness: proximity; --un-ordinal: ; --un-slashed-zero: ; --un-numeric-figure: ; --un-numeric-spacing: ; --un-numeric-fraction: ; --un-border-spacing-x: 0; --un-border-spacing-y: 0; --un-ring-offset-shadow: 0 0 transparent; --un-ring-shadow: 0 0 transparent; --un-shadow-inset: ; --un-shadow: 0 0 transparent; --un-ring-inset: ; --un-ring-offset-width: 0px; --un-ring-offset-color: #fff; --un-ring-width: 0px; --un-ring-color: rgba(147,197,253,.5); --un-blur: ; --un-brightness: ; --un-contrast: ; --un-drop-shadow: ; --un-grayscale: ; --un-hue-rotate: ; --un-invert: ; --un-saturate: ; --un-sepia: ; --un-backdrop-blur: ; --un-backdrop-brightness: ; --un-backdrop-contrast: ; --un-backdrop-grayscale: ; --un-backdrop-hue-rotate: ; --un-backdrop-invert: ; --un-backdrop-opacity: ; --un-backdrop-saturate: ; --un-backdrop-sepia: ; font-family: ui-monospace, SFMono-Regular, &amp;quot;SF Mono&amp;quot;, Menlo, Consolas, &amp;quot;Liberation Mono&amp;quot;, monospace; margin-top: 0px; margin-bottom: 0px; overflow: auto; overflow-wrap: normal; background-color: var(--TY-Fill-0); border-radius: 6px; line-height: 1.45; text-align: start; padding: 16px 8px; background-image: initial; background-position: initial; background-size: initial; background-repeat: initial; background-attachment: initial; background-origin: initial; background-clip: initial;&quot;&gt;&lt;code style=&quot;box-sizing: border-box; --un-rotate: 0; --un-rotate-x: 0; --un-rotate-y: 0; --un-rotate-z: 0; --un-scale-x: 1; --un-scale-y: 1; --un-scale-z: 1; --un-skew-x: 0; --un-skew-y: 0; --un-translate-x: 0; --un-translate-y: 0; --un-translate-z: 0; --un-pan-x: ; --un-pan-y: ; --un-pinch-zoom: ; --un-scroll-snap-strictness: proximity; --un-ordinal: ; --un-slashed-zero: ; --un-numeric-figure: ; --un-numeric-spacing: ; --un-numeric-fraction: ; --un-border-spacing-x: 0; --un-border-spacing-y: 0; --un-ring-offset-shadow: 0 0 transparent; --un-ring-shadow: 0 0 transparent; --un-shadow-inset: ; --un-shadow: 0 0 transparent; --un-ring-inset: ; --un-ring-offset-width: 0px; --un-ring-offset-color: #fff; --un-ring-width: 0px; --un-ring-color: rgba(147,197,253,.5); --un-blur: ; --un-brightness: ; --un-contrast: ; --un-drop-shadow: ; --un-grayscale: ; --un-hue-rotate: ; --un-invert: ; --un-saturate: ; --un-sepia: ; --un-backdrop-blur: ; --un-backdrop-brightness: ; --un-backdrop-contrast: ; --un-backdrop-grayscale: ; --un-backdrop-hue-rotate: ; --un-backdrop-invert: ; --un-backdrop-opacity: ; --un-backdrop-saturate: ; --un-backdrop-sepia: ; font-family: ui-monospace, SFMono-Regular, &amp;quot;SF Mono&amp;quot;, Menlo, Consolas, &amp;quot;Liberation Mono&amp;quot;, monospace; background-color: var(--TY-Fill-0); border-radius: 6px; margin: 0px; padding: 0px; background-image: initial; background-position: initial; background-size: initial; background-repeat: initial; background-attachment: initial; background-origin: initial; background-clip: initial; border: 0px; word-break: normal; overflow-wrap: normal; display: inline; line-height: inherit;&quot; data-spm-anchor-id=&quot;5176.28103460.0.i5.297c3da2JY9OAc&quot;&gt;History&lt;/code&gt;&lt;/pre&gt;" style="rounded=1;whiteSpace=wrap;html=1;" vertex="1" parent="1">
          <mxGeometry x="-290" y="370" width="160" height="60" as="geometry" />
        </mxCell>
        <mxCell id="N0XD-l2MzXy2-yZ4FKow-14" style="edgeStyle=orthogonalEdgeStyle;rounded=0;orthogonalLoop=1;jettySize=auto;html=1;entryX=1;entryY=0.5;entryDx=0;entryDy=0;shape=flexArrow;" edge="1" parent="1" source="N0XD-l2MzXy2-yZ4FKow-13" target="N0XD-l2MzXy2-yZ4FKow-11">
          <mxGeometry relative="1" as="geometry" />
        </mxCell>
        <mxCell id="N0XD-l2MzXy2-yZ4FKow-13" value="&lt;div&gt;DOM(Document Object Model)&lt;/div&gt;" style="rounded=0;whiteSpace=wrap;html=1;fillColor=#FFD966;" vertex="1" parent="1">
          <mxGeometry x="740" y="370" width="230" height="60" as="geometry" />
        </mxCell>
        <mxCell id="N0XD-l2MzXy2-yZ4FKow-18" value="Atrributes" style="rounded=1;whiteSpace=wrap;html=1;" vertex="1" parent="1">
          <mxGeometry x="440" y="500" width="160" height="60" as="geometry" />
        </mxCell>
        <mxCell id="N0XD-l2MzXy2-yZ4FKow-19" value="Elements" style="rounded=1;whiteSpace=wrap;html=1;" vertex="1" parent="1">
          <mxGeometry x="250" y="500" width="160" height="60" as="geometry" />
        </mxCell>
        <mxCell id="N0XD-l2MzXy2-yZ4FKow-20" style="edgeStyle=orthogonalEdgeStyle;rounded=0;orthogonalLoop=1;jettySize=auto;html=1;entryX=0.5;entryY=0;entryDx=0;entryDy=0;" edge="1" parent="1" source="N0XD-l2MzXy2-yZ4FKow-11" target="N0XD-l2MzXy2-yZ4FKow-18">
          <mxGeometry relative="1" as="geometry" />
        </mxCell>
        <mxCell id="N0XD-l2MzXy2-yZ4FKow-22" value="..." style="rounded=1;whiteSpace=wrap;html=1;" vertex="1" parent="1">
          <mxGeometry x="630" y="500" width="160" height="60" as="geometry" />
        </mxCell>
        <mxCell id="N0XD-l2MzXy2-yZ4FKow-24" value="V1.0&lt;div&gt;2024年05月06日 14日&lt;/div&gt;" style="text;html=1;align=center;verticalAlign=middle;whiteSpace=wrap;rounded=0;" vertex="1" parent="1">
          <mxGeometry x="380" y="105" width="180" height="30" as="geometry" />
        </mxCell>
      </root>
    </mxGraphModel>
  </diagram>
</mxfile>
